<svg width="369" height="369" viewBox="0 0 369 369" fill="none" xmlns="http://www.w3.org/2000/svg">
<path d="M78.067 165.01V164.77C78.0667 141.111 85.0842 117.982 98.2342 98.3C111.384 78.6186 130.078 63.2669 151.956 54.1819C173.834 45.0969 197.917 42.6856 221.166 47.2522C244.416 51.8187 265.789 63.1586 282.591 79.8411C295.811 73.326 310.577 70.5867 325.258 71.926C339.94 73.2652 353.964 78.6307 365.783 87.4298C377.601 96.2289 386.754 108.119 392.229 121.786C397.704 135.454 399.289 150.366 396.808 164.877C400.456 165.215 403.994 166.3 407.203 168.064C410.411 169.829 413.221 172.234 415.457 175.131C417.694 178.028 419.308 181.354 420.199 184.902C421.09 188.45 421.24 192.143 420.638 195.751C408.59 268.117 378.789 313.922 331.29 333.192V351.077C331.29 361.665 327.078 371.82 319.579 379.307C312.081 386.794 301.912 391 291.308 391H184.687C174.083 391 163.913 386.794 156.415 379.307C148.917 371.82 144.705 361.665 144.705 351.077V333.192C97.2054 313.922 67.405 268.117 55.3569 195.751C54.7755 192.238 54.9055 188.646 55.7393 185.185C56.5731 181.724 58.0937 178.465 60.2112 175.601C62.3287 172.737 65 170.327 68.067 168.512C71.134 166.698 74.5345 165.516 78.067 165.037V165.01ZM104.722 164.77H131.377C131.377 147.123 138.398 130.199 150.895 117.721C163.392 105.243 180.341 98.2323 198.015 98.2323C215.688 98.2323 232.638 105.243 245.135 117.721C257.632 130.199 264.652 147.123 264.652 164.77H291.308C291.308 140.065 281.478 116.371 263.983 98.901C246.487 81.4314 222.758 71.617 198.015 71.617C173.272 71.617 149.543 81.4314 132.047 98.901C114.551 116.371 104.722 140.065 104.722 164.77ZM158.032 164.77H237.997C237.997 154.182 233.785 144.028 226.287 136.541C218.789 129.054 208.619 124.848 198.015 124.848C187.411 124.848 177.241 129.054 169.743 136.541C162.245 144.028 158.032 154.182 158.032 164.77ZM341.046 164.77H369.593C371.606 156.905 371.793 148.684 370.142 140.735C368.491 132.787 365.044 125.319 360.064 118.902C355.085 112.484 348.704 107.287 341.408 103.705C334.111 100.123 326.093 98.2511 317.963 98.2323C311.565 98.2323 305.488 99.3501 299.837 101.399C304.555 108.958 308.447 117.102 311.432 125.646C316.509 124.389 321.844 124.648 326.775 126.391C331.705 128.133 336.015 131.284 339.169 135.45C342.323 139.617 344.182 144.617 344.516 149.829C344.849 155.041 343.643 160.237 341.046 164.77ZM304.635 337.77H171.36V351.077C171.36 354.607 172.764 357.991 175.263 360.487C177.763 362.983 181.153 364.385 184.687 364.385H291.308C294.842 364.385 298.232 362.983 300.732 360.487C303.231 357.991 304.635 354.607 304.635 351.077V337.77ZM161.977 311.154H314.018C356.293 297.58 383.054 259.201 394.356 191.386H81.6388C92.9406 259.201 119.702 297.58 161.977 311.154Z" fill="black" fill-opacity="0.1"/>
</svg>
